<svg width="20" height="25" viewBox="0 0 20 25" fill="none" xmlns="http://www.w3.org/2000/svg">
<path d="M3.26666 20.2667V10.0667C3.26666 8.26322 3.98309 6.53361 5.25834 5.25837C6.53358 3.98312 8.26319 3.26669 10.0667 3.26669C11.8701 3.26669 13.5997 3.98312 14.875 5.25837C16.1502 6.53361 16.8667 8.26322 16.8667 10.0667V20.2667M3.26666 20.2667H16.8667M3.26666 20.2667H1M16.8667 20.2667H19.1333M8.93333 23.6667H11.2" stroke="black" stroke-width="0.777142" stroke-linecap="round" stroke-linejoin="round"/>
<path d="M10.0669 3.26666C10.6928 3.26666 11.2003 2.75925 11.2003 2.13333C11.2003 1.50741 10.6928 1 10.0669 1C9.441 1 8.93359 1.50741 8.93359 2.13333C8.93359 2.75925 9.441 3.26666 10.0669 3.26666Z" stroke="black" stroke-width="0.777142"/>
</svg>
