<svg width="32" height="32" viewBox="0 0 32 32" fill="none" xmlns="http://www.w3.org/2000/svg">
<rect width="32" height="32" fill="white"/>
<path d="M17.92 15.8C17.92 16.44 17.6867 17.0867 17.22 17.74C16.7533 18.38 16.1133 19.1067 15.3 19.92C14.7 20.52 13.9933 21.1067 13.18 21.68C12.6467 22.0533 12.12 22.3733 11.6 22.64C11.0933 22.9067 10.7067 23.04 10.44 23.04C10.3067 23.04 10.1867 23 10.08 22.92C9.98667 22.8533 9.94 22.7467 9.94 22.6C9.94 22.3867 10.02 22.2 10.18 22.04C10.34 21.8933 10.5533 21.7733 10.82 21.68C10.9533 21.6267 11.14 21.5733 11.38 21.52C11.6867 21.4667 11.96 21.38 12.2 21.26C12.6533 21.0333 13.18 20.6867 13.78 20.22C14.3933 19.74 14.8733 19.3133 15.22 18.94C15.7933 18.3267 16.2267 17.7867 16.52 17.32C16.8267 16.84 16.98 16.3467 16.98 15.84C16.98 15.56 16.8467 15.36 16.58 15.24C16.3133 15.1067 15.9867 15.04 15.6 15.04C14.6133 15.04 13.7133 15.2133 12.9 15.56C12.54 15.72 12.2933 15.8333 12.16 15.9C11.68 16.1133 11.2867 16.28 10.98 16.4C10.6333 16.5333 10.3 16.6533 9.98 16.76C9.66 16.8533 9.44667 16.92 9.34 16.96L9.38 17.72C9.38 17.92 9.38667 18.24 9.4 18.68C9.42667 19.12 9.44 19.5333 9.44 19.92C9.44 20.84 9.37333 21.5867 9.24 22.16C9.18667 22.3467 9.12667 22.48 9.06 22.56C8.99333 22.64 8.86667 22.68 8.68 22.68C8.56 22.68 8.44667 22.64 8.34 22.56C8.23333 22.48 8.18 22.38 8.18 22.26C8.18 22.22 8.24 21.9933 8.36 21.58C8.48 21.1667 8.54 20.8 8.54 20.48C8.54 19.44 8.49333 18.1133 8.4 16.5L8.34 15.58C8.26 14.7 8.22 14.0067 8.22 13.5C8.22 13.1133 8.24667 12.6267 8.3 12.04C8.35333 11.44 8.39333 11.0467 8.42 10.86C7.91333 10.9933 7.26667 11.2333 6.48 11.58C6.25333 11.6733 5.96 11.84 5.6 12.08C5.26667 12.2933 5.04 12.4 4.92 12.4C4.81333 12.4 4.72 12.3533 4.64 12.26C4.56 12.1667 4.52 12.0533 4.52 11.92C4.52 11.6667 4.96667 11.34 5.86 10.94C6.75333 10.54 7.72667 10.1867 8.78 9.88C9.72667 9.6 10.5667 9.39333 11.3 9.26C12.0333 9.12667 12.7867 9.06 13.56 9.06C14.2667 9.06 14.8533 9.2 15.32 9.48C15.8 9.74667 16.04 10.1267 16.04 10.62C16.04 11.7933 15.4 13.0067 14.12 14.26C14.6933 14.18 15.2133 14.14 15.68 14.14C16.2933 14.14 16.82 14.2667 17.26 14.52C17.7 14.7733 17.92 15.2 17.92 15.8ZM15.1 10.88C15.1 10.56 14.9467 10.32 14.64 10.16C14.3333 9.98667 13.92 9.9 13.4 9.9C12.8533 9.9 12.1667 9.96667 11.34 10.1C10.5133 10.22 9.87333 10.3533 9.42 10.5C9.19333 11.4067 9.08 12.1667 9.08 12.78C9.08 13.6467 9.12 14.74 9.2 16.06C9.33333 16.0467 9.54667 15.9933 9.84 15.9C10.1467 15.8067 10.4267 15.7067 10.68 15.6C11.9467 15.0667 13 14.3733 13.84 13.52C14.68 12.6667 15.1 11.7867 15.1 10.88ZM22.8286 22.012C22.6846 22.036 22.4686 22.044 22.1806 22.036C21.9006 22.036 21.5486 22.02 21.1246 21.988C20.8046 21.972 20.5206 21.964 20.2726 21.964C20.0246 21.964 19.8086 21.98 19.6246 22.012C19.3206 21.932 19.1606 21.824 19.1446 21.688C19.1446 21.592 19.1766 21.504 19.2406 21.424L19.3006 21.364H19.7806C20.0926 21.356 20.2566 21.192 20.2726 20.872V16.048C20.2726 15.52 20.1166 15.172 19.8046 15.004C19.7726 14.988 19.7406 14.972 19.7086 14.956C19.6846 14.94 19.6566 14.928 19.6246 14.92C19.5446 14.92 19.4966 14.88 19.4806 14.8V14.764C19.4646 14.532 19.6646 14.38 20.0806 14.308C20.1206 14.3 20.1566 14.296 20.1886 14.296C20.2206 14.288 20.2486 14.284 20.2726 14.284C20.3606 14.284 20.5566 14.296 20.8606 14.32C21.1726 14.336 21.5886 14.364 22.1086 14.404C22.4446 14.428 22.7406 14.44 22.9966 14.44C23.6126 14.544 24.0686 14.832 24.3646 15.304C24.5806 15.632 24.6566 15.988 24.5926 16.372C24.5846 16.692 24.4766 16.96 24.2686 17.176C24.1886 17.256 24.0126 17.344 23.7406 17.44C23.5246 17.52 23.3846 17.648 23.3206 17.824C23.3526 17.848 23.4406 17.916 23.5846 18.028C23.7366 18.14 23.9446 18.3 24.2086 18.508C24.2726 18.564 24.3366 18.616 24.4006 18.664C24.4726 18.712 24.5366 18.756 24.5926 18.796C24.9446 19.028 25.1566 19.428 25.2286 19.996C25.2766 20.42 25.2206 20.712 25.0606 20.872C24.8846 21.128 24.7326 21.332 24.6046 21.484C24.4766 21.636 24.3766 21.74 24.3046 21.796C24.1126 21.932 23.7606 22.004 23.2486 22.012H22.8286ZM21.5326 17.464C21.6046 17.488 21.6646 17.5 21.7126 17.5C21.7926 17.476 21.8806 17.452 21.9766 17.428C22.0806 17.404 22.1966 17.376 22.3246 17.344C22.4686 17.312 22.5966 17.284 22.7086 17.26C22.8206 17.236 22.9166 17.208 22.9966 17.176C23.5966 17.024 23.8046 16.596 23.6206 15.892C23.6126 15.42 23.3486 15.096 22.8286 14.92C22.2126 14.92 21.7846 14.976 21.5446 15.088C21.3446 15.144 21.2366 15.252 21.2206 15.412C21.1806 15.46 21.1486 15.524 21.1246 15.604C21.1006 15.684 21.0886 15.752 21.0886 15.808L21.0766 15.892C21.0766 15.988 21.1126 16.276 21.1846 16.756C21.2086 16.908 21.2206 17.048 21.2206 17.176C21.2206 17.28 21.3246 17.376 21.5326 17.464ZM21.7126 21.532H23.1526C23.6086 21.532 23.9646 21.332 24.2206 20.932C24.2526 20.876 24.2846 20.82 24.3166 20.764C24.3566 20.7 24.3926 20.632 24.4246 20.56C24.5606 20.016 24.5286 19.604 24.3286 19.324C24.2806 19.26 24.2246 19.196 24.1606 19.132C24.1046 19.068 24.0366 19.008 23.9566 18.952C23.4286 18.416 22.6806 18.148 21.7126 18.148C21.4006 18.156 21.2366 18.316 21.2206 18.628C21.1246 19.068 21.0766 19.712 21.0766 20.56C20.9886 20.968 21.0086 21.224 21.1366 21.328C21.1766 21.36 21.2446 21.392 21.3406 21.424C21.4366 21.456 21.5606 21.492 21.7126 21.532Z" fill="#0177CB"/>
</svg>
