<svg width="19" height="15" viewBox="0 0 19 15" fill="none" xmlns="http://www.w3.org/2000/svg">
<path fill-rule="evenodd" clip-rule="evenodd" d="M4.62581 5.68649C5.20361 5.68649 5.75774 5.45696 6.16631 5.04839C6.57488 4.63982 6.80441 4.08569 6.80441 3.50789C6.80441 2.93009 6.57488 2.37595 6.16631 1.96739C5.75774 1.55882 5.20361 1.32929 4.62581 1.32929C4.04801 1.32929 3.49387 1.55882 3.08531 1.96739C2.67674 2.37595 2.44721 2.93009 2.44721 3.50789C2.44721 4.08569 2.67674 4.63982 3.08531 5.04839C3.49387 5.45696 4.04801 5.68649 4.62581 5.68649ZM4.62581 6.77579C5.05496 6.77579 5.4799 6.69126 5.87638 6.52703C6.27286 6.36281 6.63311 6.1221 6.93656 5.81864C7.24001 5.51519 7.48073 5.15494 7.64495 4.75846C7.80918 4.36198 7.89371 3.93704 7.89371 3.50789C7.89371 3.07874 7.80918 2.6538 7.64495 2.25732C7.48073 1.86084 7.24001 1.50059 6.93656 1.19714C6.63311 0.893683 6.27286 0.652972 5.87638 0.488744C5.4799 0.324517 5.05496 0.23999 4.62581 0.23999C3.75911 0.23999 2.92791 0.584286 2.31506 1.19714C1.70221 1.80999 1.35791 2.64119 1.35791 3.50789C1.35791 4.37459 1.70221 5.20579 2.31506 5.81864C2.92791 6.43149 3.75911 6.77579 4.62581 6.77579Z" fill="black"/>
<path fill-rule="evenodd" clip-rule="evenodd" d="M3.37744 5.5732C3.42816 5.6238 3.46841 5.6839 3.49586 5.75007C3.52332 5.81624 3.53745 5.88718 3.53745 5.95882C3.53745 6.03046 3.52332 6.10139 3.49586 6.16756C3.46841 6.23373 3.42816 6.29384 3.37744 6.34443L3.00926 6.71152C2.30071 7.42027 1.90262 8.38139 1.90253 9.38357V11.4053C1.90253 11.5498 1.84515 11.6883 1.74301 11.7904C1.64087 11.8926 1.50233 11.95 1.35788 11.95C1.21343 11.95 1.0749 11.8926 0.972757 11.7904C0.870615 11.6883 0.813232 11.5498 0.813232 11.4053V9.38357C0.813387 8.09252 1.32628 6.85437 2.23913 5.94139L2.60622 5.5732C2.65681 5.52248 2.71692 5.48224 2.78308 5.45478C2.84925 5.42733 2.92019 5.41319 2.99183 5.41319C3.06347 5.41319 3.13441 5.42733 3.20058 5.45478C3.26675 5.48224 3.32685 5.52248 3.37744 5.5732ZM16.2225 5.24641C16.1717 5.29701 16.1315 5.35711 16.104 5.42328C16.0766 5.48945 16.0625 5.56039 16.0625 5.63203C16.0625 5.70367 16.0766 5.7746 16.104 5.84077C16.1315 5.90694 16.1717 5.96704 16.2225 6.01764L16.5906 6.38473C16.9415 6.73563 17.2199 7.15221 17.4098 7.61069C17.5997 8.06916 17.6974 8.56054 17.6974 9.05678V11.4053C17.6974 11.5498 17.7548 11.6883 17.8569 11.7904C17.959 11.8926 18.0976 11.95 18.242 11.95C18.3865 11.95 18.525 11.8926 18.6272 11.7904C18.7293 11.6883 18.7867 11.5498 18.7867 11.4053V9.05678C18.7865 7.76573 18.2736 6.52758 17.3608 5.6146L16.9937 5.24641C16.9431 5.19569 16.883 5.15545 16.8168 5.12799C16.7507 5.10054 16.6797 5.0864 16.6081 5.0864C16.5364 5.0864 16.4655 5.10054 16.3993 5.12799C16.3332 5.15545 16.2731 5.19569 16.2225 5.24641Z" fill="black"/>
<path fill-rule="evenodd" clip-rule="evenodd" d="M14.4295 5.68649C13.8517 5.68649 13.2976 5.45696 12.889 5.04839C12.4804 4.63982 12.2509 4.08569 12.2509 3.50789C12.2509 2.93009 12.4804 2.37595 12.889 1.96739C13.2976 1.55882 13.8517 1.32929 14.4295 1.32929C15.0073 1.32929 15.5614 1.55882 15.97 1.96739C16.3786 2.37595 16.6081 2.93009 16.6081 3.50789C16.6081 4.08569 16.3786 4.63982 15.97 5.04839C15.5614 5.45696 15.0073 5.68649 14.4295 5.68649ZM14.4295 6.77579C14.0003 6.77579 13.5754 6.69126 13.1789 6.52703C12.7824 6.36281 12.4222 6.1221 12.1187 5.81864C11.8153 5.51519 11.5746 5.15494 11.4103 4.75846C11.2461 4.36198 11.1616 3.93704 11.1616 3.50789C11.1616 3.07874 11.2461 2.6538 11.4103 2.25732C11.5746 1.86084 11.8153 1.50059 12.1187 1.19714C12.4222 0.893683 12.7824 0.652972 13.1789 0.488744C13.5754 0.324517 14.0003 0.23999 14.4295 0.23999C15.2962 0.23999 16.1274 0.584286 16.7402 1.19714C17.3531 1.80999 17.6974 2.64119 17.6974 3.50789C17.6974 4.37459 17.3531 5.20579 16.7402 5.81864C16.1274 6.43149 15.2962 6.77579 14.4295 6.77579ZM9.52764 10.316C8.80539 10.316 8.11272 10.6029 7.60201 11.1136C7.0913 11.6243 6.80439 12.317 6.80439 13.0393V14.4553C6.80439 14.5998 6.747 14.7383 6.64486 14.8405C6.54272 14.9426 6.40419 15 6.25974 15C6.11529 15 5.97675 14.9426 5.87461 14.8405C5.77247 14.7383 5.71509 14.5998 5.71509 14.4553V13.0393C5.71509 12.0281 6.11677 11.0584 6.83176 10.3434C7.54675 9.62839 8.51649 9.22671 9.52764 9.22671C10.5388 9.22671 11.5085 9.62839 12.2235 10.3434C12.9385 11.0584 13.3402 12.0281 13.3402 13.0393V14.4553C13.3402 14.5998 13.2828 14.7383 13.1807 14.8405C13.0785 14.9426 12.94 15 12.7955 15C12.6511 15 12.5126 14.9426 12.4104 14.8405C12.3083 14.7383 12.2509 14.5998 12.2509 14.4553V13.0393C12.2509 12.6816 12.1804 12.3275 12.0436 11.9971C11.9067 11.6667 11.7061 11.3665 11.4533 11.1136C11.2004 10.8608 10.9002 10.6602 10.5698 10.5233C10.2394 10.3864 9.88526 10.316 9.52764 10.316Z" fill="black"/>
<path fill-rule="evenodd" clip-rule="evenodd" d="M9.52754 8.68206C10.1053 8.68206 10.6595 8.45252 11.068 8.04396C11.4766 7.63539 11.7061 7.08126 11.7061 6.50346C11.7061 5.92566 11.4766 5.37152 11.068 4.96295C10.6595 4.55439 10.1053 4.32486 9.52754 4.32486C8.94974 4.32486 8.39561 4.55439 7.98704 4.96295C7.57847 5.37152 7.34894 5.92566 7.34894 6.50346C7.34894 7.08126 7.57847 7.63539 7.98704 8.04396C8.39561 8.45252 8.94974 8.68206 9.52754 8.68206ZM9.52754 9.77135C10.3942 9.77135 11.2254 9.42706 11.8383 8.81421C12.4511 8.20136 12.7954 7.37016 12.7954 6.50346C12.7954 5.63676 12.4511 4.80555 11.8383 4.1927C11.2254 3.57985 10.3942 3.23556 9.52754 3.23556C8.66084 3.23556 7.82964 3.57985 7.21679 4.1927C6.60394 4.80555 6.25964 5.63676 6.25964 6.50346C6.25964 7.37016 6.60394 8.20136 7.21679 8.81421C7.82964 9.42706 8.66084 9.77135 9.52754 9.77135Z" fill="black"/>
</svg>
