<svg width="20" height="16" viewBox="0 0 20 16" fill="none" xmlns="http://www.w3.org/2000/svg">
<path d="M10 0C5.45455 0 1.57273 2.76444 0 6.66667C1.57273 10.5689 5.45455 13.3333 10 13.3333C10.3273 13.3333 10.6545 13.3333 10.9818 13.2889C10.935 13.0097 10.9107 12.7274 10.9091 12.4444C10.9091 12.1244 10.9455 11.8044 11 11.4844C10.6727 11.52 10.3364 11.5556 10 11.5556C6.58182 11.5556 3.48182 9.65333 1.98182 6.66667C2.71659 5.19973 3.85755 3.96378 5.27498 3.09933C6.69241 2.23488 8.32945 1.77661 10 1.77661C11.6705 1.77661 13.3076 2.23488 14.725 3.09933C16.1425 3.96378 17.2834 5.19973 18.0182 6.66667C17.9091 6.88 17.7818 7.06667 17.6636 7.27111C18.2636 7.41333 18.8364 7.65333 19.3545 8C19.6 7.55556 19.8182 7.11111 20 6.66667C18.4273 2.76444 14.5455 0 10 0ZM10 4C9.27668 4 8.58299 4.28095 8.07153 4.78105C7.56006 5.28115 7.27273 5.95942 7.27273 6.66667C7.27273 7.37391 7.56006 8.05219 8.07153 8.55229C8.58299 9.05238 9.27668 9.33333 10 9.33333C10.7233 9.33333 11.417 9.05238 11.9285 8.55229C12.4399 8.05219 12.7273 7.37391 12.7273 6.66667C12.7273 5.95942 12.4399 5.28115 11.9285 4.78105C11.417 4.28095 10.7233 4 10 4ZM15.4545 8.88889V11.5556H12.7273V13.3333H15.4545V16H17.2727V13.3333H20V11.5556H17.2727V8.88889H15.4545Z" fill="black"/>
</svg>
