<svg width="16" height="16" viewBox="0 0 16 16" fill="none" xmlns="http://www.w3.org/2000/svg">
<path d="M7.96337 16C5.93204 16 4.16171 15.3367 2.65237 14.01C1.14304 12.6847 0.269372 11.0147 0.0313721 9H1.04237C1.31437 10.72 2.09804 12.15 3.39337 13.29C4.69004 14.43 6.21337 15 7.96337 15C9.91337 15 11.5674 14.321 12.9254 12.963C14.2834 11.605 14.9627 9.95067 14.9634 8C14.9634 6.05 14.284 4.39567 12.9254 3.037C11.5667 1.67833 9.91271 0.999333 7.96337 1C6.92871 1 5.95604 1.21867 5.04537 1.656C4.13537 2.09333 3.33204 2.69533 2.63537 3.462H5.11637V4.462H0.963372V0.308H1.96337V2.696C2.73671 1.84733 3.64271 1.186 4.68137 0.712C5.72004 0.237333 6.81404 0 7.96337 0C9.07204 0 10.1114 0.208667 11.0814 0.626C12.0514 1.04333 12.8987 1.61433 13.6234 2.339C14.348 3.06367 14.9194 3.91133 15.3374 4.882C15.7547 5.852 15.9634 6.89133 15.9634 8C15.9634 9.10867 15.7547 10.148 15.3374 11.118C14.92 12.088 14.3487 12.9357 13.6234 13.661C12.8987 14.3857 12.0514 14.9567 11.0814 15.374C10.1114 15.7913 9.07204 16 7.96337 16ZM11.1664 11.854L7.52037 8.208V3H8.52037V7.792L11.8744 11.146L11.1664 11.854Z" fill="black"/>
</svg>
