<svg width="14" height="16" viewBox="0 0 14 16" fill="none" xmlns="http://www.w3.org/2000/svg">
<path d="M6.55341 11.7736H7.44656V6.72463H6.55341V11.7736ZM6.99998 5.31613C7.15598 5.31613 7.28638 5.26343 7.39118 5.15804C7.49657 5.05265 7.54927 4.92225 7.54927 4.76684C7.54927 4.61084 7.49657 4.48014 7.39118 4.37475C7.28638 4.26935 7.15598 4.21666 6.99998 4.21666C6.84398 4.21666 6.71358 4.26935 6.60878 4.37475C6.50339 4.48014 6.45069 4.61084 6.45069 4.76684C6.45069 4.92225 6.50339 5.05265 6.60878 5.15804C6.71358 5.26343 6.84398 5.31613 6.99998 5.31613ZM6.99998 16C5.20594 15.4671 3.71527 14.3801 2.52797 12.7391C1.34127 11.0975 0.747925 9.24837 0.747925 7.19174V2.36158L6.99998 0.0259933L13.252 2.36158V7.19174C13.252 9.24837 12.6587 11.0972 11.472 12.7382C10.2847 14.3798 8.79402 15.4671 6.99998 16ZM6.99998 15.0515C8.54811 14.5602 9.82829 13.5778 10.8405 12.1041C11.8528 10.6304 12.3589 8.99293 12.3589 7.19174V2.97161L6.99998 0.979879L1.64108 2.97161V7.19174C1.64108 8.99293 2.14719 10.6304 3.15943 12.1041C4.17167 13.5778 5.45185 14.5602 6.99998 15.0515Z" fill="black"/>
</svg>
