<svg width="14" height="13" viewBox="0 0 14 13" fill="none" xmlns="http://www.w3.org/2000/svg">
<path d="M13 12.5L10.1047 9.6047M10.1047 9.6047C10.6 9.10945 10.9928 8.5215 11.2608 7.87442C11.5289 7.22734 11.6668 6.5338 11.6668 5.83341C11.6668 5.13302 11.5289 4.43948 11.2608 3.7924C10.9928 3.14532 10.6 2.55737 10.1047 2.06212C9.60945 1.56687 9.0215 1.17401 8.37442 0.905982C7.72734 0.637953 7.0338 0.5 6.33341 0.5C5.63302 0.5 4.93948 0.637953 4.2924 0.905982C3.64532 1.17401 3.05737 1.56687 2.56212 2.06212C1.56191 3.06233 1 4.4189 1 5.83341C1 7.24792 1.56191 8.60449 2.56212 9.6047C3.56233 10.6049 4.9189 11.1668 6.33341 11.1668C7.74792 11.1668 9.10449 10.6049 10.1047 9.6047Z" stroke="#373737" stroke-width="0.666667" stroke-linecap="round" stroke-linejoin="round"/>
</svg>
