<svg width="16" height="16" viewBox="0 0 16 16" fill="none" xmlns="http://www.w3.org/2000/svg">
<path d="M7.70933 4.91971C7.04272 4.91971 6.39108 5.11738 5.83682 5.48773C5.28255 5.85808 4.85056 6.38447 4.59546 7.00033C4.34036 7.6162 4.27361 8.29388 4.40366 8.94768C4.53371 9.60148 4.85471 10.202 5.32607 10.6734C5.79744 11.1448 6.39799 11.4658 7.05179 11.5958C7.70559 11.7259 8.38327 11.6591 8.99914 11.404C9.615 11.1489 10.1414 10.7169 10.5117 10.1627C10.8821 9.60839 11.0798 8.95675 11.0798 8.29014C11.0787 7.39656 10.7233 6.53987 10.0915 5.90801C9.4596 5.27615 8.60291 4.92073 7.70933 4.91971ZM7.70933 11.0478C7.16392 11.0478 6.63076 10.886 6.17727 10.583C5.72378 10.28 5.37033 9.84933 5.16161 9.34544C4.9529 8.84155 4.89829 8.28708 5.00469 7.75216C5.11109 7.21723 5.37373 6.72587 5.75939 6.34021C6.14505 5.95455 6.63641 5.69191 7.17134 5.5855C7.70627 5.4791 8.26073 5.53371 8.76462 5.74243C9.26851 5.95115 9.6992 6.3046 10.0022 6.75809C10.3052 7.21158 10.467 7.74474 10.467 8.29014C10.467 9.02151 10.1764 9.72292 9.65926 10.2401C9.14211 10.7572 8.44069 11.0478 7.70933 11.0478ZM14.1384 8.55901C14.1451 8.37976 14.1451 8.20103 14.1384 8.02281L15.351 6.50688C15.3811 6.46946 15.402 6.42549 15.412 6.37853C15.4219 6.33156 15.4207 6.2829 15.4085 6.23648C15.227 5.55796 14.9563 4.90653 14.6034 4.29925C14.5798 4.2575 14.5466 4.22189 14.5067 4.19529C14.4668 4.16868 14.4212 4.15181 14.3736 4.14604L12.444 3.93156C12.3227 3.80024 12.1962 3.67375 12.0648 3.55239L11.8511 1.62588C11.8454 1.57826 11.8285 1.53265 11.8019 1.49274C11.7753 1.45283 11.7397 1.41972 11.6979 1.39608C11.0914 1.04401 10.4411 0.773574 9.76376 0.591773C9.7174 0.579387 9.66877 0.578063 9.62181 0.587909C9.57484 0.597755 9.53084 0.618495 9.49336 0.648458L7.97819 1.86105C7.79895 1.8539 7.62021 1.8539 7.44199 1.86105L5.92453 0.648458C5.88711 0.618363 5.84315 0.597485 5.79618 0.587505C5.74921 0.577526 5.70055 0.578725 5.65413 0.591007C4.97615 0.772616 4.32524 1.04333 3.71843 1.39608C3.67669 1.41972 3.64108 1.45283 3.61447 1.49274C3.58786 1.53265 3.57099 1.57826 3.56523 1.62588L3.35075 3.55545C3.21943 3.67682 3.09294 3.80331 2.97157 3.93463L1.04507 4.14834C0.997444 4.15411 0.95184 4.17097 0.911925 4.19758C0.872011 4.22419 0.838903 4.2598 0.815265 4.30154C0.463199 4.90805 0.192759 5.5584 0.0109578 6.23571C-0.00142851 6.28207 -0.00275202 6.3307 0.00709374 6.37766C0.0169395 6.42463 0.0376792 6.46863 0.0676422 6.50611L1.28023 8.02127C1.27308 8.20052 1.27308 8.37925 1.28023 8.55748L0.0676422 10.0749C0.0375481 10.1124 0.0166694 10.1563 0.00669006 10.2033C-0.00328927 10.2503 -0.00208983 10.2989 0.0101917 10.3453C0.191801 11.0233 0.462518 11.6742 0.815265 12.281C0.838903 12.3228 0.872011 12.3584 0.911925 12.385C0.95184 12.4116 0.997444 12.4285 1.04507 12.4342L2.97464 12.6487C3.09567 12.7797 3.22282 12.9069 3.35381 13.0279L3.56829 14.9582C3.57406 15.0059 3.59092 15.0515 3.61753 15.0914C3.64414 15.1313 3.67975 15.1644 3.7215 15.188C4.32888 15.5392 4.98001 15.8086 5.65796 15.9893C5.70432 16.0017 5.75294 16.003 5.79991 15.9931C5.84688 15.9833 5.89088 15.9626 5.92836 15.9326L7.44352 14.72C7.62277 14.7266 7.8015 14.7266 7.97973 14.72L9.49566 15.9326C9.54997 15.9762 9.61752 15.9999 9.68716 16C9.71301 15.9999 9.73875 15.9966 9.76376 15.99C10.442 15.8083 11.0932 15.5373 11.7002 15.1842C11.742 15.1606 11.7776 15.1275 11.8042 15.0875C11.8308 15.0476 11.8477 15.002 11.8534 14.9544L12.0679 13.0248C12.1989 12.9038 12.3261 12.7766 12.4471 12.6457L14.3774 12.4312C14.425 12.4254 14.4706 12.4085 14.5106 12.3819C14.5505 12.3553 14.5836 12.3197 14.6072 12.278C14.9584 11.6706 15.2278 11.0195 15.4085 10.3415C15.4208 10.2951 15.4222 10.2465 15.4123 10.1996C15.4025 10.1526 15.3817 10.1086 15.3518 10.0711L14.1384 8.55901ZM14.1514 11.8398L12.2617 12.0497C12.1863 12.0581 12.1167 12.0941 12.0664 12.1508C11.911 12.3261 11.7453 12.4918 11.57 12.6472C11.5133 12.6975 11.4773 12.7671 11.4689 12.8425L11.259 14.7315C10.7823 14.995 10.2777 15.2044 9.75457 15.3558L8.27004 14.1677C8.21562 14.1244 8.14809 14.1009 8.07854 14.1011H8.06016C7.8265 14.1156 7.59216 14.1156 7.3585 14.1011C7.28269 14.0965 7.2079 14.1203 7.14861 14.1677L5.66485 15.355C5.14146 15.2042 4.63659 14.9953 4.15965 14.7323L3.94976 12.8425C3.9414 12.7671 3.90537 12.6975 3.84865 12.6472C3.67339 12.4918 3.50763 12.3261 3.35228 12.1508C3.30193 12.0941 3.23233 12.0581 3.15695 12.0497L1.26798 11.8398C1.00449 11.3632 0.795095 10.8585 0.643679 10.3354L1.83176 8.85086C1.87921 8.79157 1.90296 8.71678 1.8984 8.64097C1.88461 8.40729 1.88461 8.173 1.8984 7.93931C1.90296 7.86351 1.87921 7.78871 1.83176 7.72942L0.644445 6.24567C0.795247 5.72228 1.00413 5.2174 1.26721 4.74047L3.15695 4.53058C3.23233 4.52221 3.30193 4.48619 3.35228 4.42947C3.50763 4.2542 3.67339 4.08844 3.84865 3.9331C3.90537 3.88274 3.9414 3.81314 3.94976 3.73776L4.15965 1.84879C4.63631 1.58531 5.14092 1.37591 5.66409 1.22449L7.14861 2.41257C7.2079 2.46003 7.28269 2.48378 7.3585 2.47921C7.59216 2.46466 7.8265 2.46466 8.06016 2.47921C8.13596 2.48378 8.21076 2.46003 8.27004 2.41257L9.7538 1.22526C10.2772 1.37606 10.7821 1.58495 11.259 1.84802L11.4689 3.73776C11.4773 3.81314 11.5133 3.88274 11.57 3.9331C11.7453 4.08844 11.911 4.2542 12.0664 4.42947C12.1167 4.48619 12.1863 4.52221 12.2617 4.53058L14.1507 4.74047C14.4142 5.21713 14.6236 5.72174 14.775 6.2449L13.5869 7.72942C13.5394 7.78871 13.5157 7.86351 13.5203 7.93931C13.534 8.173 13.534 8.40729 13.5203 8.64097C13.5157 8.71678 13.5394 8.79157 13.5869 8.85086L14.7742 10.3346C14.6234 10.858 14.4145 11.3629 14.1514 11.8398Z" fill="black"/>
</svg>
