<svg width="20" height="20" viewBox="0 0 20 20" fill="none" xmlns="http://www.w3.org/2000/svg">
<path d="M17.0612 20C16.2455 20 15.551 19.7439 14.9776 19.2316C14.4043 18.7207 14.1176 18.0996 14.1176 17.3684C14.1176 17.2281 14.1314 17.0832 14.1588 16.9337C14.1855 16.7835 14.2259 16.6425 14.28 16.5105L5.17176 11.7084C4.88392 11.9989 4.54902 12.2253 4.16706 12.3874C3.78588 12.5502 3.37725 12.6316 2.94118 12.6316C2.12392 12.6316 1.4298 12.3761 0.858824 11.8653C0.286275 11.3537 0 10.7326 0 10.0021C0 9.27228 0.286275 8.65088 0.858824 8.13789C1.42902 7.62491 2.12314 7.36842 2.94118 7.36842C3.37725 7.36842 3.78588 7.44983 4.16706 7.61263C4.54902 7.77474 4.88392 8.00105 5.17176 8.29158L14.28 3.48947C14.2259 3.35754 14.1855 3.21649 14.1588 3.06632C14.1314 2.91684 14.1176 2.77193 14.1176 2.63158C14.1176 1.90035 14.4035 1.2793 14.9753 0.768421C15.5463 0.25614 16.24 0 17.0565 0C17.8722 0 18.5667 0.25579 19.14 0.767369C19.7133 1.27825 20 1.89895 20 2.62947C20 3.3593 19.7137 3.9807 19.1412 4.49368C18.5702 5.00667 17.8761 5.26316 17.0588 5.26316C16.6227 5.26316 16.2141 5.18175 15.8329 5.01895C15.451 4.85684 15.1161 4.63053 14.8282 4.34L5.72 9.14211C5.77412 9.27404 5.81451 9.41439 5.84118 9.56316C5.86863 9.71263 5.88235 9.85684 5.88235 9.99579C5.88235 10.1347 5.86863 10.2804 5.84118 10.4326C5.81451 10.5842 5.77412 10.726 5.72 10.8579L14.8282 15.66C15.1161 15.3695 15.451 15.1432 15.8329 14.9811C16.2141 14.8182 16.6227 14.7368 17.0588 14.7368C17.8761 14.7368 18.5702 14.9926 19.1412 15.5042C19.7137 16.0151 20 16.6358 20 17.3663C20 18.0961 19.7145 18.7175 19.1435 19.2305C18.5718 19.7435 17.8776 20 17.0612 20ZM17.0588 4.21053C17.5427 4.21053 17.958 4.05579 18.3047 3.74632C18.6506 3.43614 18.8235 3.06456 18.8235 2.63158C18.8235 2.1986 18.6506 1.82702 18.3047 1.51684C17.958 1.20737 17.5427 1.05263 17.0588 1.05263C16.5749 1.05263 16.1596 1.20737 15.8129 1.51684C15.4671 1.82702 15.2941 2.1986 15.2941 2.63158C15.2941 3.06456 15.4671 3.43614 15.8129 3.74632C16.1596 4.05579 16.5749 4.21053 17.0588 4.21053ZM2.94118 11.5789C3.4251 11.5789 3.84039 11.4242 4.18706 11.1147C4.53294 10.8046 4.70588 10.433 4.70588 10C4.70588 9.56702 4.53294 9.19544 4.18706 8.88526C3.84039 8.57579 3.4251 8.42105 2.94118 8.42105C2.45726 8.42105 2.04196 8.57579 1.69529 8.88526C1.34941 9.19544 1.17647 9.56702 1.17647 10C1.17647 10.433 1.34941 10.8046 1.69529 11.1147C2.04196 11.4242 2.45726 11.5789 2.94118 11.5789ZM17.0588 18.9474C17.5427 18.9474 17.958 18.7926 18.3047 18.4832C18.6506 18.173 18.8235 17.8014 18.8235 17.3684C18.8235 16.9354 18.6506 16.5639 18.3047 16.2537C17.958 15.9442 17.5427 15.7895 17.0588 15.7895C16.5749 15.7895 16.1596 15.9442 15.8129 16.2537C15.4671 16.5639 15.2941 16.9354 15.2941 17.3684C15.2941 17.8014 15.4671 18.173 15.8129 18.4832C16.1596 18.7926 16.5749 18.9474 17.0588 18.9474Z" fill="black"/>
</svg>
