<svg width="20" height="20" viewBox="0 0 20 20" fill="none" xmlns="http://www.w3.org/2000/svg">
<path d="M8.35618 0.669913C8.45326 0.468849 8.60355 0.299538 8.79004 0.181143C8.97653 0.0627488 9.19177 0 9.41139 0C9.63102 0 9.84625 0.0627488 10.0327 0.181143C10.2192 0.299538 10.3695 0.468849 10.4666 0.669913L12.737 5.36436L17.8155 6.11836C18.0327 6.15056 18.2368 6.24418 18.4047 6.38862C18.5726 6.53307 18.6975 6.72257 18.7653 6.9357C18.8331 7.14882 18.8411 7.37706 18.7884 7.5946C18.7357 7.81213 18.6245 8.01028 18.4672 8.16663L17.8213 8.80896C17.4483 8.59929 17.0559 8.42796 16.6497 8.29749L17.6461 7.30698L12.5676 6.55298C12.3791 6.52482 12.2001 6.45034 12.046 6.33594C11.8919 6.22154 11.7673 6.07065 11.683 5.89624L9.41257 1.20059L7.1398 5.89624C7.05538 6.0708 6.93063 6.22179 6.77631 6.3362C6.622 6.45061 6.44274 6.52501 6.25398 6.55298L1.17555 7.30698L4.85056 10.9617C4.98699 11.0976 5.08901 11.2653 5.14782 11.4504C5.20663 11.6355 5.22049 11.8325 5.18818 12.0242L4.32119 17.1869L8.25266 15.0774C8.28324 15.5049 8.35265 15.9215 8.4597 16.3225L4.86938 18.2495C4.67505 18.3535 4.45608 18.4 4.23722 18.3836C4.01836 18.3673 3.80834 18.2888 3.6309 18.1571C3.45346 18.0253 3.31566 17.8455 3.23309 17.638C3.15052 17.4305 3.12646 17.2036 3.16363 16.9828L4.03062 11.8213L0.355608 8.16663C0.198322 8.01028 0.0870449 7.81213 0.0343647 7.5946C-0.0183155 7.37706 -0.0102961 7.14882 0.0575159 6.9357C0.125328 6.72257 0.250226 6.53307 0.41808 6.38862C0.585935 6.24418 0.790046 6.15056 1.00732 6.11836L6.08576 5.36556L8.35618 0.669913ZM20 14.5972C20 16.0301 19.4423 17.4043 18.4495 18.4175C17.4567 19.4308 16.1103 20 14.7063 20C13.3023 20 11.9558 19.4308 10.9631 18.4175C9.9703 17.4043 9.41257 16.0301 9.41257 14.5972C9.41257 13.1643 9.9703 11.79 10.9631 10.7768C11.9558 9.76359 13.3023 9.19436 14.7063 9.19436C16.1103 9.19436 17.4567 9.76359 18.4495 10.7768C19.4423 11.79 20 13.1643 20 14.5972ZM15.2945 12.1959C15.2945 12.0367 15.2325 11.884 15.1222 11.7714C15.0119 11.6589 14.8623 11.5956 14.7063 11.5956C14.5503 11.5956 14.4007 11.6589 14.2904 11.7714C14.1801 11.884 14.1181 12.0367 14.1181 12.1959V13.9969H12.3535C12.1975 13.9969 12.0479 14.0601 11.9376 14.1727C11.8273 14.2853 11.7653 14.438 11.7653 14.5972C11.7653 14.7564 11.8273 14.9091 11.9376 15.0217C12.0479 15.1342 12.1975 15.1975 12.3535 15.1975H14.1181V16.9984C14.1181 17.1576 14.1801 17.3103 14.2904 17.4229C14.4007 17.5355 14.5503 17.5987 14.7063 17.5987C14.8623 17.5987 15.0119 17.5355 15.1222 17.4229C15.2325 17.3103 15.2945 17.1576 15.2945 16.9984V15.1975H17.059C17.215 15.1975 17.3647 15.1342 17.475 15.0217C17.5853 14.9091 17.6472 14.7564 17.6472 14.5972C17.6472 14.438 17.5853 14.2853 17.475 14.1727C17.3647 14.0601 17.215 13.9969 17.059 13.9969H15.2945V12.1959Z" fill="black"/>
</svg>
