<svg width="15" height="18" viewBox="0 0 15 18" fill="none" xmlns="http://www.w3.org/2000/svg">
<path d="M8.80005 17.1998L8.74334 14.9803H7.33337C5.29502 14.9803 3.56337 14.2675 2.13841 12.8418C0.712804 11.4169 0 9.68523 0 7.64688C0 5.60853 0.712804 3.87688 2.13841 2.45192C3.56337 1.02631 5.29502 0.313507 7.33337 0.313507C8.35222 0.313507 9.30654 0.504501 10.1963 0.886488C11.0855 1.26782 11.8621 1.79029 12.5264 2.45387C13.19 3.11812 13.7124 3.8948 14.0938 4.78393C14.4758 5.67372 14.6667 6.62803 14.6667 7.64688C14.6667 8.64357 14.5204 9.60082 14.2277 10.5186C13.9344 11.4358 13.5296 12.3031 13.0133 13.1205C12.4957 13.9379 11.8765 14.6908 11.1555 15.3792C10.4346 16.0676 9.64942 16.6741 8.80005 17.1988M9.77783 15.3225C10.9349 14.3447 11.8762 13.2 12.6017 11.8885C13.3272 10.577 13.6896 9.1631 13.689 7.64688C13.689 5.87058 13.0736 4.3674 11.8429 3.13735C10.6122 1.90729 9.10903 1.29194 7.33337 1.29129C5.55707 1.29129 4.05389 1.90664 2.82384 3.13735C1.59379 4.36805 0.978435 5.87123 0.977783 7.64688C0.977783 9.42319 1.59313 10.9267 2.82384 12.1574C4.05454 13.3881 5.55772 14.0031 7.33337 14.0025H9.77783V15.3225ZM7.36564 12.6052C7.56772 12.6052 7.73818 12.5358 7.87702 12.397C8.01587 12.2575 8.08529 12.087 8.08529 11.8856C8.08529 11.6835 8.01587 11.513 7.87702 11.3742C7.73752 11.2347 7.56706 11.1649 7.36564 11.1649C7.16357 11.1649 6.99311 11.2347 6.85426 11.3742C6.71476 11.513 6.64501 11.6835 6.64501 11.8856C6.64501 12.0876 6.71476 12.2581 6.85426 12.397C6.99311 12.5358 7.16357 12.6052 7.36564 12.6052ZM6.93835 9.7452H7.80369C7.82846 9.34431 7.90538 9.02719 8.03444 8.79382C8.16351 8.56046 8.46988 8.20194 8.95356 7.71826C9.23451 7.43796 9.45712 7.15147 9.62139 6.85879C9.78565 6.56676 9.86779 6.23138 9.86779 5.85265C9.86779 5.14734 9.62432 4.59327 9.13738 4.19042C8.65045 3.78692 8.0615 3.58517 7.37053 3.58517C6.76691 3.58517 6.25521 3.75042 5.83541 4.08091C5.41496 4.4114 5.10696 4.80544 4.9114 5.26305L5.71612 5.57496C5.8478 5.28553 6.04009 5.02186 6.29301 4.78393C6.54658 4.54666 6.90576 4.42802 7.37053 4.42802C7.92395 4.42802 8.33234 4.57827 8.59569 4.87878C8.85969 5.17993 8.99169 5.50847 8.99169 5.86438C8.99169 6.19161 8.90695 6.46833 8.73747 6.69452C8.56799 6.92071 8.35059 7.16679 8.08529 7.43275C7.61595 7.84602 7.3073 8.21758 7.15933 8.54742C7.01201 8.87596 6.93835 9.27522 6.93835 9.7452Z" fill="black"/>
</svg>
