<svg width="14" height="18" viewBox="0 0 14 18" fill="none" xmlns="http://www.w3.org/2000/svg">
<path d="M6.02001 13.5407L10.6475 8.91413L9.97548 8.24213L6.01441 12.2041L4.01894 10.2077L3.35254 10.8741L6.02001 13.5407ZM1.97401 17.4C1.54467 17.4 1.18627 17.2563 0.898808 16.9688C0.610719 16.6807 0.466675 16.322 0.466675 15.8927V2.10733C0.466675 1.678 0.610719 1.3196 0.898808 1.03213C1.18627 0.744043 1.54467 0.599998 1.97401 0.599998H9.33334L13.5333 4.8V15.8927C13.5333 16.322 13.3896 16.6804 13.1021 16.9679C12.8141 17.256 12.4553 17.4 12.026 17.4H1.97401ZM8.86668 5.26666V1.53333H1.97401C1.8309 1.53333 1.6993 1.59307 1.57921 1.71253C1.45974 1.83262 1.40001 1.96422 1.40001 2.10733V15.8927C1.40001 16.0358 1.45974 16.1674 1.57921 16.2875C1.6993 16.4069 1.8309 16.4667 1.97401 16.4667H12.026C12.1691 16.4667 12.3007 16.4069 12.4208 16.2875C12.5403 16.1674 12.6 16.0358 12.6 15.8927V5.26666H8.86668Z" fill="black"/>
</svg>
